<svg height="512" width="512" xmlns="http://www.w3.org/2000/svg"><path d="M491 128.984v254.034c0 12.6-7.252 24.078-18.638 29.498l-202.286 96.303C265.628 510.943 260.808 512 256 512s-9.617-1.057-14.065-3.181L39.639 412.516A32.673 32.673 0 0 1 21 383.018V128.984a32.548 32.548 0 0 1 5.441-18.038 32.47 32.47 0 0 1 13.204-11.459l202.29-96.31a32.742 32.742 0 0 1 28.142 0l202.29 96.31a32.432 32.432 0 0 1 13.193 11.459 32.552 32.552 0 0 1 5.44 18.038z" fill="#e53935"/><path d="M485.559 110.946a32.439 32.439 0 0 0-13.193-11.459l-202.29-96.31a32.742 32.742 0 0 0-28.142 0l-1.39.662 200.9 95.648a32.425 32.425 0 0 1 13.193 11.459 32.545 32.545 0 0 1 5.441 18.038v254.034c0 12.6-7.252 24.078-18.638 29.498l-200.896 95.641 1.39.662C246.383 510.943 251.192 512 256 512s9.628-1.057 14.076-3.181l202.286-96.303A32.673 32.673 0 0 0 491 383.018V128.984a32.545 32.545 0 0 0-5.441-18.038z" fill="#d32f2f"/><path d="M256 220.239V512a32.625 32.625 0 0 1-14.065-3.181L39.639 412.516A32.673 32.673 0 0 1 21 383.018V128.984a32.548 32.548 0 0 1 5.441-18.038z" fill="#f44336"/><path d="M491 128.984v254.041c0 12.461-7.109 23.843-18.296 29.333-.109.054-.229.109-.338.163l-202.29 96.299A32.686 32.686 0 0 1 256 512V220.239l229.559-109.293A32.545 32.545 0 0 1 491 128.984z" fill="#d32f2f"/><path d="m485.559 110.946-25.994 12.376c.326 1.851.513 3.741.513 5.662v254.041c0 12.461-7.109 23.843-18.296 29.333-.109.054-.229.109-.338.163L256 500.801V512c4.808 0 9.628-1.057 14.076-3.181l202.29-96.299c.109-.054.229-.109.338-.163 11.187-5.49 18.296-16.872 18.296-29.333v-254.04a32.545 32.545 0 0 0-5.441-18.038z" fill="#c62828"/><g fill="#f1f1f1"><ellipse cx="389.64" cy="306.507" rx="26.736" ry="19.708" transform="rotate(-82.3 389.693 306.497)"/><ellipse cx="190.492" cy="263.252" rx="19.607" ry="26.736" transform="rotate(-3.15 188.732 260.937)"/><ellipse cx="78.302" cy="360.193" rx="19.607" ry="26.736" transform="rotate(-3.15 77.508 356.987)"/><ellipse cx="161.083" cy="104.225" rx="26.736" ry="19.607" transform="rotate(-3.15 159.612 103.336)"/><ellipse cx="253.668" cy="58.477" rx="26.736" ry="19.607" transform="rotate(-3.15 251.386 58.006)"/><ellipse cx="350.609" cy="107.492" rx="26.736" ry="19.607" transform="rotate(-3.15 347.431 106.611)"/><ellipse cx="260.203" cy="149.972" rx="26.736" ry="19.607" transform="rotate(-3.15 257.837 148.692)"/></g></svg>