<svg height="512pt" viewBox="0 0 512 512" width="512pt" xmlns="http://www.w3.org/2000/svg"><path fill="#FFF" d="M277.332 128c0 11.781-9.55 21.332-21.332 21.332s-21.332-9.55-21.332-21.332 9.55-21.332 21.332-21.332 21.332 9.55 21.332 21.332zM256 405.332c-8.832 0-16-7.168-16-16V224h-21.332c-8.832 0-16-7.168-16-16s7.168-16 16-16H256c8.832 0 16 7.168 16 16v181.332c0 8.832-7.168 16-16 16zm0 0"/><path fill="#FFF" d="M304 405.332h-96c-8.832 0-16-7.168-16-16s7.168-16 16-16h96c8.832 0 16 7.168 16 16s-7.168 16-16 16zm0 0"/></svg>